<svg xmlns="http://www.w3.org/2000/svg" width="400" height="1200" viewBox="0 0 400 1200">
  <defs>
    <linearGradient id="sky" x1="0" y1="0" x2="0" y2="1">
      <stop offset="0" stop-color="#050912"/><stop offset="0.7" stop-color="#0C1A2C"/><stop offset="1" stop-color="#10233A"/>
    </linearGradient>
    <radialGradient id="glow"><stop offset="0" stop-color="#33B5F0" stop-opacity="0.22"/><stop offset="1" stop-color="#33B5F0" stop-opacity="0"/></radialGradient>
  </defs>
  <rect width="400" height="1200" fill="url(#sky)"/>
  <circle cx="200" cy="130" r="220" fill="url(#glow)"/>
  <circle cx="204" cy="512" r="1.8" fill="#DDF4FF" opacity="0.49"/><circle cx="101" cy="314" r="1.2" fill="#DDF4FF" opacity="0.30"/><circle cx="232" cy="818" r="1.7" fill="#DDF4FF" opacity="0.42"/><circle cx="18" cy="872" r="2.2" fill="#DDF4FF" opacity="0.44"/><circle cx="239" cy="336" r="1.2" fill="#DDF4FF" opacity="0.67"/><circle cx="5" cy="648" r="1.8" fill="#DDF4FF" opacity="0.21"/><circle cx="229" cy="743" r="1.4" fill="#DDF4FF" opacity="0.25"/><circle cx="374" cy="266" r="1.3" fill="#DDF4FF" opacity="0.29"/><circle cx="61" cy="324" r="2.2" fill="#DDF4FF" opacity="0.31"/><circle cx="124" cy="299" r="1.7" fill="#DDF4FF" opacity="0.69"/><circle cx="354" cy="792" r="1.1" fill="#DDF4FF" opacity="0.48"/><circle cx="27" cy="575" r="1.7" fill="#DDF4FF" opacity="0.50"/><circle cx="13" cy="637" r="1.8" fill="#DDF4FF" opacity="0.62"/><circle cx="113" cy="857" r="1.1" fill="#DDF4FF" opacity="0.67"/><circle cx="29" cy="502" r="1.0" fill="#DDF4FF" opacity="0.41"/><circle cx="274" cy="829" r="1.8" fill="#DDF4FF" opacity="0.66"/><circle cx="201" cy="448" r="1.3" fill="#DDF4FF" opacity="0.38"/><circle cx="38" cy="627" r="2.2" fill="#DDF4FF" opacity="0.62"/><circle cx="170" cy="325" r="1.7" fill="#DDF4FF" opacity="0.22"/><circle cx="24" cy="276" r="1.2" fill="#DDF4FF" opacity="0.30"/><circle cx="356" cy="520" r="1.7" fill="#DDF4FF" opacity="0.43"/><circle cx="387" cy="269" r="1.6" fill="#DDF4FF" opacity="0.30"/><circle cx="102" cy="856" r="1.8" fill="#DDF4FF" opacity="0.55"/><circle cx="318" cy="822" r="1.7" fill="#DDF4FF" opacity="0.59"/><circle cx="66" cy="462" r="1.0" fill="#DDF4FF" opacity="0.51"/><circle cx="113" cy="696" r="1.8" fill="#DDF4FF" opacity="0.55"/><circle cx="391" cy="553" r="1.4" fill="#DDF4FF" opacity="0.30"/><circle cx="116" cy="550" r="1.6" fill="#DDF4FF" opacity="0.58"/><circle cx="209" cy="526" r="1.5" fill="#DDF4FF" opacity="0.38"/><circle cx="45" cy="825" r="1.5" fill="#DDF4FF" opacity="0.34"/><circle cx="243" cy="340" r="1.5" fill="#DDF4FF" opacity="0.53"/><circle cx="115" cy="551" r="1.8" fill="#DDF4FF" opacity="0.49"/><circle cx="208" cy="632" r="2.2" fill="#DDF4FF" opacity="0.34"/><circle cx="320" cy="283" r="1.2" fill="#DDF4FF" opacity="0.30"/><circle cx="332" cy="860" r="1.2" fill="#DDF4FF" opacity="0.60"/><circle cx="217" cy="717" r="1.6" fill="#DDF4FF" opacity="0.54"/><circle cx="366" cy="829" r="2.2" fill="#DDF4FF" opacity="0.24"/><circle cx="46" cy="279" r="1.3" fill="#DDF4FF" opacity="0.41"/><circle cx="274" cy="328" r="1.4" fill="#DDF4FF" opacity="0.46"/><circle cx="394" cy="830" r="1.3" fill="#DDF4FF" opacity="0.30"/><circle cx="241" cy="466" r="1.4" fill="#DDF4FF" opacity="0.48"/><circle cx="162" cy="641" r="1.2" fill="#DDF4FF" opacity="0.56"/><circle cx="123" cy="823" r="1.8" fill="#DDF4FF" opacity="0.36"/><circle cx="230" cy="362" r="1.6" fill="#DDF4FF" opacity="0.54"/><circle cx="33" cy="608" r="2.2" fill="#DDF4FF" opacity="0.21"/><circle cx="189" cy="809" r="1.5" fill="#DDF4FF" opacity="0.26"/><circle cx="211" cy="301" r="1.4" fill="#DDF4FF" opacity="0.29"/><circle cx="222" cy="497" r="1.6" fill="#DDF4FF" opacity="0.62"/><circle cx="328" cy="444" r="1.0" fill="#DDF4FF" opacity="0.41"/><circle cx="373" cy="854" r="1.7" fill="#DDF4FF" opacity="0.20"/><circle cx="46" cy="407" r="1.3" fill="#DDF4FF" opacity="0.51"/><circle cx="164" cy="659" r="1.2" fill="#DDF4FF" opacity="0.52"/><circle cx="101" cy="374" r="2.2" fill="#DDF4FF" opacity="0.27"/><circle cx="212" cy="487" r="1.2" fill="#DDF4FF" opacity="0.49"/><circle cx="154" cy="731" r="1.9" fill="#DDF4FF" opacity="0.38"/><circle cx="79" cy="361" r="1.9" fill="#DDF4FF" opacity="0.58"/><circle cx="249" cy="794" r="2.2" fill="#DDF4FF" opacity="0.37"/><circle cx="343" cy="748" r="1.2" fill="#DDF4FF" opacity="0.64"/><circle cx="136" cy="374" r="1.7" fill="#DDF4FF" opacity="0.62"/><circle cx="262" cy="340" r="1.5" fill="#DDF4FF" opacity="0.54"/><circle cx="310" cy="742" r="1.3" fill="#DDF4FF" opacity="0.32"/><circle cx="317" cy="475" r="1.6" fill="#DDF4FF" opacity="0.62"/><circle cx="277" cy="716" r="1.3" fill="#DDF4FF" opacity="0.35"/><circle cx="398" cy="617" r="1.4" fill="#DDF4FF" opacity="0.53"/><circle cx="201" cy="648" r="1.3" fill="#DDF4FF" opacity="0.34"/><circle cx="135" cy="474" r="2.2" fill="#DDF4FF" opacity="0.39"/><circle cx="182" cy="867" r="1.5" fill="#DDF4FF" opacity="0.42"/><circle cx="69" cy="872" r="1.4" fill="#DDF4FF" opacity="0.30"/><circle cx="40" cy="878" r="1.8" fill="#DDF4FF" opacity="0.70"/><circle cx="105" cy="643" r="1.7" fill="#DDF4FF" opacity="0.49"/><circle cx="177" cy="668" r="1.6" fill="#DDF4FF" opacity="0.69"/><circle cx="165" cy="608" r="1.7" fill="#DDF4FF" opacity="0.60"/><circle cx="39" cy="558" r="1.5" fill="#DDF4FF" opacity="0.23"/><circle cx="71" cy="495" r="1.4" fill="#DDF4FF" opacity="0.56"/><circle cx="237" cy="689" r="1.8" fill="#DDF4FF" opacity="0.40"/><circle cx="93" cy="632" r="1.0" fill="#DDF4FF" opacity="0.23"/><circle cx="280" cy="594" r="1.2" fill="#DDF4FF" opacity="0.34"/><circle cx="76" cy="519" r="1.4" fill="#DDF4FF" opacity="0.31"/><circle cx="388" cy="475" r="1.3" fill="#DDF4FF" opacity="0.23"/><circle cx="137" cy="324" r="1.6" fill="#DDF4FF" opacity="0.68"/><circle cx="189" cy="643" r="1.7" fill="#DDF4FF" opacity="0.31"/><circle cx="148" cy="591" r="1.4" fill="#DDF4FF" opacity="0.30"/><circle cx="296" cy="278" r="1.1" fill="#DDF4FF" opacity="0.52"/><circle cx="140" cy="516" r="1.5" fill="#DDF4FF" opacity="0.44"/><circle cx="166" cy="641" r="1.2" fill="#DDF4FF" opacity="0.28"/><circle cx="93" cy="379" r="1.4" fill="#DDF4FF" opacity="0.64"/><circle cx="47" cy="299" r="1.7" fill="#DDF4FF" opacity="0.21"/><circle cx="168" cy="489" r="2.2" fill="#DDF4FF" opacity="0.57"/><circle cx="26" cy="443" r="1.4" fill="#DDF4FF" opacity="0.57"/><circle cx="14" cy="444" r="1.8" fill="#DDF4FF" opacity="0.46"/>
  <polygon points="0,1028.1738839475438 46,934 72,886 91,913 140,1013 193,980 228,933 255,978 333,1011 435,959 476,923 508,953 560,1027 400,1200 0,1200" fill="#0A1422"/><polyline points="0,1028.1738839475438 46,934 72,886 91,913 140,1013 193,980 228,933 255,978 333,1011 435,959 476,923 508,953 560,1027" fill="none" stroke="#8BE0FF" stroke-width="3" stroke-linejoin="round" opacity="0.7"/>
  <polygon points="0,1090.318363062106 35,1023 66,999 89,1030 169,1096 198,1030 219,990 236,1011 287,1093 306,1080 325,1042 340,1067 392,1093 465,1052 497,1025 522,1062 572,1090 400,1200 0,1200" fill="#0A1422"/><polyline points="0,1090.318363062106 35,1023 66,999 89,1030 169,1096 198,1030 219,990 236,1011 287,1093 306,1080 325,1042 340,1067 392,1093 465,1052 497,1025 522,1062 572,1090" fill="none" stroke="#8BE0FF" stroke-width="3" stroke-linejoin="round" opacity="0.4"/>
  <polygon points="0,1178.0098554771394 19,1115 30,1099 39,1112 60,1185 81,1157 95,1135 107,1159 140,1183 166,1157 182,1137 195,1158 232,1186 283,1145 307,1127 326,1151 367,1181 409,1128 430,1101 446,1127 482,1187 400,1200 0,1200" fill="#0A1422"/><polyline points="0,1178.0098554771394 19,1115 30,1099 39,1112 60,1185 81,1157 95,1135 107,1159 140,1183 166,1157 182,1137 195,1158 232,1186 283,1145 307,1127 326,1151 367,1181 409,1128 430,1101 446,1127 482,1187" fill="none" stroke="#8BE0FF" stroke-width="3" stroke-linejoin="round" opacity="0.22"/>
</svg>
